# xmcd
#
# Track frame offsets:
#	150
#	27535
#	43347
#	71912
#	98892
#	120537
#	139682
#	168302
#	193315
#	210797
#
# Disc length: 3009 seconds
#
# Revision: 1
# Processed by: cddbd v1.5.1PL2 Copyright (c) Steve Scherf et al.
# Submitted via: audiograbber 1.83.01
#
DISCID=930bbf0a
DTITLE=Follaje - Clásicos del blues
DYEAR=1998
DGENRE=Blues
TTITLE0=Rock me baby
TTITLE1=I'm tore down
TTITLE2=All your love
TTITLE3=God bless the child
TTITLE4=It hurts me too
TTITLE5=Got my mojo working
TTITLE6=Ramblin' on my mind
TTITLE7=Summertime
TTITLE8=Walking by myself
TTITLE9=Saint James Infirmary
EXTD=
EXTT0=
EXTT1=
EXTT2=
EXTT3=
EXTT4=
EXTT5=
EXTT6=
EXTT7=
EXTT8=
EXTT9=
PLAYORDER=
